<svg width="734" height="718" viewBox="0 0 734 718" fill="none" xmlns="http://www.w3.org/2000/svg">
<path d="M661.299 664.736C667.986 689.954 657.607 715.736 657.607 715.736C657.607 715.736 636.386 700.633 629.698 675.415C623.01 650.197 633.389 624.415 633.389 624.415C633.389 624.415 654.611 639.519 661.299 664.736Z" fill="#FFC7C7"/>
<path d="M651.145 665.418C645.516 690.963 656.959 716.165 656.959 716.165C656.959 716.165 677.527 699.951 683.156 674.406C688.784 648.861 677.342 623.659 677.342 623.659C677.342 623.659 656.773 639.873 651.145 665.418Z" fill="#FFDCDC"/>
<path d="M316.66 690.784L312.403 678.423L352.61 654.007L358.892 672.249L316.66 690.784Z" fill="#FFB8B8"/>
<path d="M293.852 658.54C295.657 657.747 297.582 657.363 299.518 657.41C301.454 657.458 303.363 657.935 305.135 658.816C306.907 659.696 308.508 660.963 309.847 662.542C311.185 664.122 312.235 665.984 312.936 668.021L315.808 676.354L320.235 689.215L321.317 692.369L307.129 698.599L293.406 658.739L293.852 658.54Z" fill="#2F2E41"/>
<path d="M320.233 666.996L322.084 672.538L326.705 686.371L326.816 686.717C338.587 688.424 351.492 685.077 363.428 679.877C368.204 677.798 372.881 675.442 377.442 672.819C384.192 668.968 390.235 664.905 395.057 661.43C402.316 656.17 406.805 652.221 406.805 652.221C406.805 652.221 407.991 653.431 410.137 655.505C413.013 658.283 417.609 662.621 423.43 667.727C425.651 669.689 428.035 671.741 430.583 673.882C449.365 689.609 473.469 647.645 473.469 647.645C473.469 647.645 466.69 642.773 464.919 641.827C459.216 638.782 445.819 631.595 434.261 625.209C428.307 621.914 422.847 618.824 419.182 616.628C406.202 608.827 390.067 623.589 390.067 623.589L320.233 666.996Z" fill="#2F2E41"/>
<path opacity="0.14" d="M320.233 666.996L322.084 672.538L326.705 686.371L326.816 686.717C338.587 688.424 351.492 685.077 363.428 679.877C368.204 677.798 372.881 675.442 377.442 672.819C384.192 668.968 390.235 664.905 395.057 661.43C402.316 656.17 406.805 652.221 406.805 652.221C406.805 652.221 407.991 653.431 410.137 655.505C413.013 658.283 417.609 662.621 423.43 667.727C425.651 669.689 428.035 671.741 430.583 673.882C449.365 689.609 473.469 647.645 473.469 647.645C473.469 647.645 466.69 642.773 464.919 641.827C459.216 638.782 445.819 631.595 434.261 625.209C428.307 621.914 422.847 618.824 419.182 616.628C406.202 608.827 390.067 623.589 390.067 623.589L320.233 666.996Z" fill="black"/>
<path d="M558.09 372.773C466.901 372.773 392.977 289.325 392.977 186.387C392.977 83.4482 466.901 0 558.09 0C649.28 0 723.204 83.4482 723.204 186.387C723.204 289.325 649.28 372.773 558.09 372.773Z" fill="#6C63FF"/>
<path opacity="0.2" d="M680.005 61.895C695.406 102.563 697.495 148.089 685.899 190.336C674.303 232.583 649.777 268.799 616.704 292.512C583.631 316.225 544.166 325.891 505.361 319.781C466.556 313.672 430.94 292.185 404.877 259.161C414.285 284.008 428.367 306.248 446.145 324.342C463.924 342.436 484.975 355.949 507.839 363.947C530.704 371.946 554.835 374.236 578.562 370.661C602.289 367.086 625.043 357.731 645.249 343.243C665.455 328.756 682.629 309.483 695.581 286.759C708.533 264.035 716.954 238.404 720.26 211.642C723.566 184.879 721.678 157.626 714.727 131.769C707.776 105.912 695.929 82.0699 680.005 61.895Z" fill="black"/>
<path d="M557.637 186.386H557.183L549.018 714.823H566.255L557.637 186.386Z" fill="#3F3D56"/>
<path d="M583.054 426.045L586.858 434.201L559.564 450.422L555.76 442.267L583.054 426.045Z" fill="#3F3D56"/>
<path d="M0.958252 716.927H733.042C733.296 716.927 733.54 716.813 733.719 716.61C733.899 716.407 734 716.132 734 715.845C734 715.558 733.899 715.283 733.719 715.08C733.54 714.877 733.296 714.763 733.042 714.763H0.958252C0.704102 714.763 0.460388 714.877 0.280701 715.08C0.100952 715.283 0 715.558 0 715.845C0 716.132 0.100952 716.407 0.280701 716.61C0.460388 716.813 0.704102 716.927 0.958252 716.927Z" fill="#3F3D56"/>
<path d="M508.102 550.66H563.679C564.823 550.658 565.919 550.145 566.727 549.232C567.535 548.32 567.99 547.083 567.991 545.792V518.75C567.991 509.14 564.609 499.923 558.589 493.127C552.569 486.331 544.404 482.514 535.891 482.514C527.377 482.514 519.212 486.331 513.192 493.127C507.172 499.923 503.79 509.14 503.79 518.75V545.792C503.792 547.083 504.246 548.32 505.055 549.232C505.863 550.145 506.959 550.658 508.102 550.66Z" fill="#2F2E41"/>
<path d="M455.249 584.627C456.543 584.883 457.771 585.457 458.847 586.307C459.923 587.157 460.821 588.263 461.478 589.548C462.134 590.832 462.533 592.263 462.647 593.741C462.76 595.218 462.585 596.705 462.134 598.098L477.247 613.789L471.04 626.482L449.974 603.985C447.951 602.975 446.327 601.162 445.41 598.891C444.492 596.62 444.344 594.047 444.994 591.661C445.645 589.275 447.048 587.241 448.938 585.944C450.828 584.648 453.073 584.179 455.249 584.627Z" fill="#FFB8B8"/>
<path d="M500.722 655.965C501.405 655.965 502.088 655.932 502.773 655.866C506.85 655.482 510.773 653.935 514.175 651.37C517.578 648.805 520.347 645.307 522.223 641.203L546.435 588.598C548.021 585.151 548.369 581.146 547.407 577.417C546.444 573.687 544.245 570.52 541.267 568.575C538.289 566.629 534.761 566.054 531.416 566.97C528.072 567.886 525.17 570.222 523.313 573.492L500.976 630.068L470.582 602.191L452.983 609.925L482.703 646.963C484.988 649.794 487.77 652.057 490.873 653.607C493.975 655.157 497.33 655.96 500.722 655.965Z" fill="#CCCCCC"/>
<path d="M411.161 574.682L438.089 544.285C439.031 543.222 440.309 542.625 441.641 542.625C442.973 542.625 444.251 543.222 445.192 544.285L469.416 571.63C470.358 572.694 470.887 574.136 470.887 575.64C470.887 577.143 470.358 578.585 469.416 579.649L444.257 608.05C443.36 609.063 442.156 609.655 440.888 609.707C439.62 609.759 438.381 609.268 437.421 608.331L411.429 582.982C410.93 582.496 410.521 581.903 410.225 581.237C409.929 580.572 409.751 579.847 409.703 579.105C409.655 578.362 409.737 577.616 409.945 576.909C410.152 576.202 410.481 575.548 410.912 574.985C410.992 574.881 411.075 574.78 411.161 574.682Z" fill="#3F3D56"/>
<path d="M414.974 580.013L442.691 548.725L465.565 574.546L438.923 604.619L414.974 580.013Z" fill="#F2F2F2"/>
<path d="M440.726 589.119C434.51 589.119 429.471 583.431 429.471 576.414C429.471 569.397 434.51 563.708 440.726 563.708C446.942 563.708 451.981 569.397 451.981 576.414C451.981 583.431 446.942 589.119 440.726 589.119Z" fill="#6C63FF"/>
<path opacity="0.1" d="M435.716 587.243C433.834 585.246 432.617 582.578 432.27 579.688C431.923 576.798 432.468 573.861 433.813 571.371C435.157 568.881 437.22 566.988 439.654 566.012C442.089 565.035 444.747 565.033 447.182 566.007C445.866 564.967 444.369 564.257 442.79 563.925C441.211 563.592 439.587 563.645 438.028 564.08C436.468 564.514 435.009 565.321 433.749 566.445C432.489 567.569 431.456 568.984 430.721 570.596C429.985 572.208 429.564 573.979 429.485 575.79C429.406 577.601 429.671 579.41 430.263 581.095C430.854 582.781 431.759 584.304 432.915 585.562C434.072 586.82 435.454 587.785 436.968 588.39C436.527 588.042 436.109 587.658 435.716 587.243Z" fill="black"/>
<path d="M446.26 573.889C447.602 575.313 447.673 580.438 445.624 582.9C443.574 585.362 440.18 584.229 438.838 582.805C437.496 581.382 438.713 580.206 440.763 577.744C442.812 575.282 444.917 572.465 446.26 573.889Z" fill="#F2F2F2"/>
<path d="M434.834 580.385C432.992 580.385 431.499 578.7 431.499 576.621C431.499 574.542 432.992 572.856 434.834 572.856C436.675 572.856 438.168 574.542 438.168 576.621C438.168 578.7 436.675 580.385 434.834 580.385Z" fill="#2F2E41"/>
<path d="M440.828 573.184C438.986 573.184 437.493 571.498 437.493 569.419C437.493 567.34 438.986 565.655 440.828 565.655C442.67 565.655 444.163 567.34 444.163 569.419C444.163 571.498 442.67 573.184 440.828 573.184Z" fill="#2F2E41"/>
<path d="M434.834 577.562C434.373 577.562 434 577.141 434 576.621C434 576.101 434.373 575.68 434.834 575.68C435.294 575.68 435.667 576.101 435.667 576.621C435.667 577.141 435.294 577.562 434.834 577.562Z" fill="#F2F2F2"/>
<path d="M434.475 574.774C434.244 574.774 434.058 574.563 434.058 574.303C434.058 574.043 434.244 573.833 434.475 573.833C434.705 573.833 434.892 574.043 434.892 574.303C434.892 574.563 434.705 574.774 434.475 574.774Z" fill="#F2F2F2"/>
<path d="M440.469 567.572C440.239 567.572 440.052 567.361 440.052 567.101C440.052 566.842 440.239 566.631 440.469 566.631C440.699 566.631 440.886 566.842 440.886 567.101C440.886 567.361 440.699 567.572 440.469 567.572Z" fill="#F2F2F2"/>
<path d="M440.828 570.36C440.368 570.36 439.994 569.939 439.994 569.419C439.994 568.899 440.368 568.478 440.828 568.478C441.288 568.478 441.662 568.899 441.662 569.419C441.662 569.939 441.288 570.36 440.828 570.36Z" fill="#F2F2F2"/>
<path d="M320.057 708.167L314.971 696.214L353.397 668.382L360.903 686.025L320.057 708.167Z" fill="#FFB8B8"/>
<path d="M295.122 677.997C296.867 677.05 298.76 676.5 300.694 676.38C302.627 676.259 304.563 676.57 306.39 677.294C308.217 678.018 309.899 679.142 311.341 680.601C312.783 682.06 313.957 683.825 314.794 685.796L318.224 693.855L323.514 706.294L324.807 709.344L311.086 716.786L294.69 678.235L295.122 677.997Z" fill="#2F2E41"/>
<path d="M322 684.141L324.223 689.506L329.771 702.897L329.905 703.233C341.758 703.914 354.397 699.458 365.944 693.238C370.564 690.751 375.067 687.996 379.436 684.985C385.904 680.561 391.653 675.985 396.224 672.102C403.104 666.228 407.31 661.902 407.31 661.902C407.31 661.902 408.575 663.005 410.856 664.887C413.913 667.407 418.79 671.334 424.942 675.92C427.289 677.683 429.806 679.522 432.492 681.437C452.29 695.488 480.442 712.6 504.388 716.213C546.445 722.562 536.546 659.208 536.546 659.208L503.075 639.586L488.865 642.842L473.045 646.455L467.439 647.742C467.439 647.742 466.375 647.288 464.545 646.498C458.652 643.956 444.806 637.953 432.847 632.588C426.686 629.819 421.032 627.212 417.228 625.341C403.756 618.688 388.673 634.805 388.673 634.805L322 684.141Z" fill="#2F2E41"/>
<path d="M597.793 717.726C596.513 717.394 595.313 716.749 594.277 715.838C593.241 714.926 592.395 713.768 591.798 712.447C591.202 711.126 590.869 709.674 590.823 708.192C590.777 706.71 591.02 705.235 591.534 703.87L577.161 687.318L583.94 675.005L603.948 698.701C605.922 699.828 607.461 701.733 608.273 704.055C609.085 706.376 609.115 708.954 608.357 711.299C607.598 713.644 606.104 715.594 604.157 716.778C602.21 717.963 599.946 718.3 597.793 717.726L597.793 717.726Z" fill="#FFB8B8"/>
<path d="M528.022 551.867C515.646 551.867 505.613 540.542 505.613 526.571C505.613 512.6 515.646 501.274 528.022 501.274C540.398 501.274 550.431 512.6 550.431 526.571C550.431 540.542 540.398 551.867 528.022 551.867Z" fill="#FFB8B8"/>
<path d="M557.176 596.791L537.655 659.264L537.772 659.483C540.487 664.55 541.375 668.637 540.338 671.302C540.065 671.979 539.665 672.582 539.166 673.068C538.666 673.555 538.079 673.913 537.446 674.118L491.251 637.669L492.868 623.061L492.778 622.897C488.313 614.833 486.867 607.529 488.48 601.191C490.574 592.966 497.225 589.232 497.292 589.195L497.453 589.052L520.493 557.396L551.292 563.573L557.176 596.791Z" fill="#CCCCCC"/>
<path d="M586.862 706.447L599.939 688.278L568.414 629.532L553.716 578.247L553.26 578.413L553.716 578.247C552.913 575.445 551.587 572.87 549.828 570.696C548.069 568.521 545.918 566.798 543.519 565.641C541.12 564.485 538.529 563.922 535.921 563.992C533.313 564.061 530.749 564.761 528.401 566.044C526.053 567.326 523.976 569.162 522.309 571.428C520.643 573.694 519.426 576.336 518.741 579.177C518.056 582.019 517.918 584.993 518.338 587.899C518.757 590.806 519.723 593.577 521.171 596.026L548.155 641.661L586.862 706.447Z" fill="#CCCCCC"/>
<path d="M496.196 521.454H530.18L530.529 515.947L532.271 521.454H537.504L538.195 510.538L541.648 521.454H551.773V520.913C551.766 513.314 549.088 506.028 544.328 500.654C539.567 495.28 533.113 492.257 526.38 492.249H521.589C514.857 492.257 508.402 495.28 503.642 500.654C498.881 506.028 496.204 513.314 496.196 520.913V521.454Z" fill="#2F2E41"/>
<path d="M530.458 555.708C530.714 555.707 530.969 555.682 531.221 555.632L556.106 550.675V504.25H528.713L529.391 505.142C538.827 517.565 531.718 537.708 526.641 548.609C526.267 549.408 526.1 550.309 526.159 551.21C526.219 552.111 526.503 552.974 526.978 553.701C527.377 554.322 527.899 554.828 528.504 555.177C529.109 555.526 529.779 555.708 530.458 555.708Z" fill="#2F2E41"/>
</svg>
