<svg width="489" height="421" viewBox="0 0 489 421" fill="none" xmlns="http://www.w3.org/2000/svg">
<g clip-path="url(#clip0)">
<path d="M298.762 136.588C298.482 137.229 298.1 137.812 297.633 138.31C293.89 142.59 289.045 145.553 283.727 146.815C281.849 147.283 279.928 147.518 278.001 147.516C276.872 139.628 275.723 131.729 274.839 123.809C274.142 117.622 273.621 111.445 273.376 105.237C273.209 101.346 265.421 87.7806 267.012 84.1447C268.77 80.1475 281.429 93.8296 282.853 96.4342C290.758 110.786 293.597 121.885 299.018 134.228C299.223 135.02 299.131 135.868 298.762 136.588Z" fill="#FF8934"/>
<path d="M285.004 145.369C284.624 145.903 284.197 146.394 283.727 146.836C281.849 147.304 279.928 147.54 278.001 147.538C276.872 139.649 275.723 131.751 274.839 123.83C275.173 117.608 275.779 111.41 276.656 105.237C276.283 107.82 279.219 113.454 280.015 115.985L283.462 127.009C285.259 132.76 289.099 139.756 285.004 145.369Z" fill="url(#paint0_linear)"/>
<path d="M280.771 158.86C281.557 164.048 282.558 169.299 284.925 173.892C286.143 176.252 287.96 178.57 290.425 178.984C291.795 179.125 293.177 178.902 294.451 178.336C297.091 177.353 299.58 175.948 301.836 174.168C303.992 172.379 306.024 170.421 307.915 168.311C310.729 165.436 313.333 162.329 315.703 159.019C316.793 157.425 317.785 155.745 318.973 154.225C323.883 147.899 331.74 145.061 337.308 139.416C338.811 137.906 341.855 130.996 341.629 128.784C339.587 127.509 335.393 132.644 333.135 133.388C330.876 134.132 328.764 135.344 326.496 136.035C323.779 136.855 320.913 136.895 318.178 136.152C317.255 135.897 316.155 120.131 315.232 120.492C314.767 120.703 314.351 121.023 314.014 121.428C312.109 123.554 311.068 141.701 309.486 144.061C307.316 147.251 304.311 149.674 301.335 151.992C301.07 152.194 300.736 152.407 300.442 152.247C300.345 152.169 300.263 152.07 300.202 151.957C300.142 151.844 300.103 151.718 300.088 151.588C299.312 148.473 298.438 145.38 297.486 142.328C296.818 140.202 295.875 137.863 293.901 137.226C292.143 136.662 290.317 137.736 288.745 138.767C286.722 140.107 284.68 141.425 282.666 142.775C281.547 143.519 280.192 144.242 279.661 145.613C279.013 147.261 279.563 149.536 279.75 151.227C280.044 153.789 280.388 156.33 280.771 158.86Z" fill="#F5BCBA"/>
<path d="M298.694 303.453C298.694 306.706 298.546 309.906 298.281 313.084C295.99 340.287 284.134 365.497 265.163 383.507C246.192 401.517 221.555 410.951 196.342 409.859C171.129 408.768 147.267 397.234 129.685 377.641C112.103 358.048 102.145 331.893 101.869 304.579C101.869 304.218 101.869 303.867 101.869 303.516C101.739 289.436 104.188 275.467 109.076 262.418C113.964 249.369 121.192 237.498 130.344 227.491C139.496 217.485 150.389 209.541 162.394 204.12C174.4 198.699 187.278 195.908 200.286 195.908C213.294 195.908 226.172 198.699 238.178 204.12C250.183 209.541 261.076 217.485 270.228 227.491C279.38 237.498 286.608 249.369 291.496 262.418C296.384 275.467 298.833 289.436 298.703 303.516L298.694 303.453Z" fill="#FFA26D"/>
<path d="M298.694 303.453C298.694 306.706 298.546 309.906 298.281 313.084C275.635 329.764 242.304 340.289 205.132 340.289C161.922 340.289 123.955 326.075 101.869 304.526C101.869 304.165 101.869 303.814 101.869 303.463C101.739 289.383 104.188 275.414 109.076 262.365C113.964 249.315 121.192 237.444 130.344 227.438C139.496 217.431 150.389 209.488 162.394 204.067C174.4 198.646 187.278 195.855 200.286 195.855C213.294 195.855 226.172 198.646 238.178 204.067C250.183 209.488 261.076 217.431 270.228 227.438C279.38 237.444 286.608 249.315 291.496 262.365C296.384 275.414 298.833 289.383 298.703 303.463L298.694 303.453Z" fill="url(#paint1_linear)"/>
<path d="M245.407 261.8C249.335 263.331 253.607 264.426 256.828 267.328C259.686 269.89 261.424 273.601 262.829 277.311C267.511 289.762 269.2 303.296 267.739 316.646C267.346 320.196 266.757 323.854 267.611 327.277C268.466 330.7 271.382 333.91 274.662 333.485C279.209 323.705 279.308 312.287 279.317 301.337C279.317 293.342 279.317 285.178 276.843 277.64C274.82 271.432 271.245 265.946 267.552 260.726C254.088 241.59 237.796 223.741 217.055 215.14C216.195 214.664 215.207 214.532 214.266 214.768C209.994 216.459 210.691 224.687 212.351 227.993C214.707 232.561 217.332 236.96 220.207 241.165C226.515 250.613 235.292 257.8 245.407 261.8Z" fill="url(#paint2_linear)"/>
<path d="M206.566 237.774C206.625 236.343 206.795 234.921 207.077 233.522C207.228 232.827 207.553 232.191 208.015 231.683C208.477 231.175 209.06 230.814 209.699 230.641C210.239 230.625 210.776 230.572 211.31 230.481C212.4 230.12 212.861 228.748 213.176 227.568L216.662 214.386C217.33 211.834 218.007 209.155 217.497 206.572C216.691 202.532 213.264 199.8 209.925 197.823C207.499 196.377 204.769 195.09 202.068 195.633C197.885 196.472 195.459 201.15 193.898 205.434C192.08 210.025 190.963 214.904 190.588 219.882C190.313 225.633 189.861 239.719 193.151 244.748C197.708 251.807 205.84 244.153 206.566 237.774Z" fill="url(#paint3_linear)"/>
<path d="M259.539 221.136C268.446 224.4 277.943 225.772 286.526 229.928C286.802 230.019 287.059 230.17 287.278 230.374C287.498 230.577 287.677 230.827 287.803 231.108C287.878 231.569 287.823 232.043 287.645 232.469C280.397 255.805 276.308 280.155 275.507 304.76C280.643 305.761 285.891 305.886 291.063 305.132C291.644 305.093 292.207 304.9 292.703 304.569C293.18 304.117 293.539 303.538 293.744 302.889C302.052 282.697 309.509 262.126 316.115 241.176C317.284 237.466 318.443 233.585 317.971 229.694C317.294 224.028 313.356 219.563 309.614 215.534L280.457 184.045C279.715 183.14 278.805 182.415 277.785 181.918C276.613 181.541 275.373 181.475 274.171 181.727C262.672 183.269 246.968 183.747 225.834 182.79C223.094 182.663 236.637 199.555 237.766 202.798C238.67 205.371 241.528 208.687 243.276 210.686C247.656 215.661 253.568 218.946 259.539 221.136Z" fill="#525263"/>
<path d="M259.539 221.136C268.446 224.4 277.943 225.772 286.526 229.928C286.802 230.019 287.059 230.17 287.278 230.374C287.498 230.577 287.677 230.827 287.803 231.108C287.878 231.569 287.823 232.043 287.645 232.469C280.397 255.805 276.308 280.155 275.507 304.76C280.643 305.761 285.891 305.886 291.063 305.132C291.644 305.093 292.207 304.9 292.703 304.569C293.18 304.117 293.539 303.538 293.744 302.889C302.052 282.697 309.509 262.126 316.115 241.176C317.284 237.466 318.443 233.585 317.971 229.694C317.294 224.028 313.356 219.563 309.614 215.534L280.457 184.045C279.715 183.14 278.805 182.415 277.785 181.918C276.613 181.541 275.373 181.475 274.171 181.727C262.672 183.269 246.968 183.747 225.834 182.79C223.094 182.663 236.637 199.555 237.766 202.798C238.67 205.371 241.528 208.687 243.276 210.686C247.656 215.661 253.568 218.946 259.539 221.136Z" fill="url(#paint4_linear)"/>
<path d="M274.014 318.719C273.299 319.924 272.815 321.272 272.59 322.684C272.067 325.155 271.68 327.658 271.431 330.179C271.235 332.135 271.166 334.261 272.197 335.867C273.229 337.472 274.928 338.057 276.519 338.726C280.524 340.51 284.415 342.581 288.166 344.924C290.7 346.434 293.341 347.997 296.229 348.114C299.116 348.23 302.308 346.519 302.965 343.478C303.193 342.015 303.079 340.512 302.632 339.109C301.055 333.009 297.964 327.494 293.695 323.162C292.947 322.372 292.112 321.683 291.21 321.111C290.345 320.627 289.441 320.228 288.51 319.92C285.887 318.881 283.199 318.046 280.466 317.422C278.08 317.007 275.664 316.242 274.014 318.719Z" fill="#2E2E3F"/>
<path d="M274.014 318.719C273.299 319.924 272.815 321.272 272.59 322.684C272.067 325.155 271.68 327.658 271.431 330.179C271.235 332.135 271.166 334.261 272.197 335.867C273.229 337.472 274.928 338.057 276.519 338.726C280.524 340.51 284.415 342.581 288.166 344.924C290.7 346.434 293.341 347.997 296.229 348.114C299.116 348.23 302.308 346.519 302.965 343.478C303.193 342.015 303.079 340.512 302.632 339.109C301.055 333.009 297.964 327.494 293.695 323.162C292.947 322.372 292.112 321.683 291.21 321.111C290.345 320.627 289.441 320.228 288.51 319.92C285.887 318.881 283.199 318.046 280.466 317.422C278.08 317.007 275.664 316.242 274.014 318.719Z" fill="url(#paint5_linear)"/>
<path d="M276.931 305.558C276.187 309.763 275.799 314.033 275.772 318.315C275.772 320.196 275.89 322.28 277.137 323.63C278.318 324.646 279.823 325.113 281.321 324.927C283.127 324.855 284.91 324.456 286.595 323.747C286.968 323.621 287.306 323.394 287.577 323.088C287.776 322.786 287.913 322.442 287.979 322.078C289.478 315.992 290.273 309.729 290.346 303.431C290.442 302.444 290.253 301.449 289.806 300.582C288.873 299.168 286.938 299.232 285.367 299.572C283.355 300.038 281.384 300.689 279.475 301.518C277.668 302.198 277.294 303.538 276.931 305.558Z" fill="#F5BCBA"/>
<path d="M296.297 325.544C297.007 327.433 297.585 329.377 298.026 331.359C298.33 332.901 298.507 334.548 299.42 335.782C300.579 337.323 302.592 337.716 304.429 337.748C305.942 337.841 307.456 337.565 308.858 336.94C309.587 336.631 310.197 336.061 310.586 335.324C310.859 334.598 310.954 333.806 310.861 333.028C310.718 327.627 309.474 322.327 307.218 317.507C305.924 315.016 304.467 312.628 302.857 310.363C302.349 309.344 301.493 308.581 300.471 308.237C299.946 308.216 299.423 308.31 298.932 308.513C298.441 308.716 297.993 309.023 297.613 309.417C295.993 310.735 292.428 312.935 292.801 315.434C293.273 318.761 295.197 322.386 296.297 325.544Z" fill="#F5BCBA"/>
<path d="M308.2 329.467C307.089 330.14 306.01 330.874 304.969 331.667C303.349 332.635 301.443 332.826 299.666 333.379C299.197 333.476 298.765 333.725 298.428 334.091C298.183 334.449 298.031 334.871 297.986 335.314C297.653 338.216 297.762 341.157 298.311 344.021C299.214 350.215 300.268 356.385 301.473 362.529C301.974 365.06 302.573 367.728 304.272 369.546C305.971 371.364 308.553 371.991 310.969 372.065C313.23 372.206 315.488 371.75 317.549 370.736C319.189 369.786 320.609 368.448 321.704 366.821C322.799 365.193 323.541 363.319 323.874 361.339C324.513 357.356 324.063 353.258 322.577 349.549C321.569 347.012 320.394 344.558 319.061 342.203C317.294 338.914 315.533 335.626 313.778 332.337C312.442 329.828 311.225 328.074 308.2 329.467Z" fill="#2E2E3F"/>
<path d="M308.2 329.467C307.089 330.14 306.01 330.874 304.969 331.667C303.349 332.635 301.443 332.826 299.666 333.379C299.197 333.476 298.765 333.725 298.428 334.091C298.183 334.449 298.031 334.871 297.986 335.314C297.653 338.216 297.762 341.157 298.311 344.021C299.214 350.215 300.268 356.385 301.473 362.529C301.974 365.06 302.573 367.728 304.272 369.546C305.971 371.364 308.553 371.991 310.969 372.065C313.23 372.206 315.488 371.75 317.549 370.736C319.189 369.786 320.609 368.448 321.704 366.821C322.799 365.193 323.541 363.319 323.874 361.339C324.513 357.356 324.063 353.258 322.577 349.549C321.569 347.012 320.394 344.558 319.061 342.203C317.294 338.914 315.533 335.626 313.778 332.337C312.442 329.828 311.225 328.074 308.2 329.467Z" fill="url(#paint6_linear)"/>
<path d="M189.213 134.876C188.354 137.217 187.78 139.668 187.504 142.169C186.57 148.644 185.974 155.171 185.717 161.719C185.226 174.222 185.972 186.745 185.648 199.247C185.314 212.249 183.9 225.729 188.221 237.859C188.894 240.06 190.031 242.062 191.541 243.706C192.305 244.515 193.247 245.1 194.278 245.405C195.309 245.71 196.395 245.725 197.433 245.45C198.372 245.058 199.216 244.437 199.897 243.635C200.578 242.833 201.079 241.871 201.361 240.825C201.903 238.73 202.141 236.557 202.068 234.383L202.226 222.497C202.226 222.253 202.226 221.966 202.451 221.859C202.546 221.824 202.648 221.816 202.746 221.836C202.844 221.857 202.936 221.905 203.011 221.976C203.856 222.767 204.659 223.608 205.417 224.496C206.291 225.261 207.686 225.633 208.462 224.751C208.676 224.441 208.829 224.087 208.908 223.709C208.988 223.332 208.993 222.941 208.923 222.561C208.452 217.415 204.308 213.705 201.843 209.272C198.287 202.893 198.287 194.856 199.181 187.436C200.291 178.144 202.609 169.076 204.916 160.04L206.881 152.396C208.363 146.591 209.827 140.255 207.666 134.695C206.799 132.56 205.478 130.676 203.81 129.198C202.143 127.72 200.177 126.69 198.071 126.19C193.966 125.372 190.696 131.262 189.213 134.876Z" fill="#F5BCBA"/>
<path d="M280.388 183.215C279.121 186.904 271.972 182.599 267.886 184.81C260.089 189.062 251.191 184.693 242.5 184.81C233.249 184.991 226.866 194.856 217.683 196.111C217.016 196.26 216.328 196.26 215.66 196.111C214.393 195.707 213.647 194.335 213.107 193.049C212.314 191.065 211.747 188.984 211.418 186.851C210.278 179.792 211.418 172.223 212.635 165.047C213.657 158.966 214.675 152.882 215.69 146.793C216.868 139.706 218.056 132.576 219.255 125.404C219.953 120.672 220.937 115.995 222.201 111.403C222.436 110.605 222.682 109.829 222.947 109.064C225.231 102.829 227.987 96.8094 231.187 91.0655C233.151 87.3766 235.115 83.6238 238.149 80.8278C241.538 77.7342 245.908 76.1927 250.298 75.4485C254.245 74.643 258.316 74.8985 262.151 76.1927C264.341 77.0219 265.166 79.5308 266.904 81.0723C269.108 82.8396 271.074 84.929 272.747 87.2809C274.447 90.1204 275.661 93.2677 276.332 96.5724C282.489 122.491 273.582 150.451 279.435 176.443C280.103 179.495 281.399 180.303 280.388 183.215Z" fill="#FF8934"/>
<path d="M272.021 92.1712L272.787 97.6036L269.841 95.8283V110.223L266.482 94.2336L269.733 89.1094L272.021 92.1712Z" fill="url(#paint7_linear)"/>
<path d="M247.076 91.8204L248.932 92.8835L251.879 95.6582L244.022 118.472C244.022 118.472 255.434 99.4641 255.807 89.7686C256.038 83.8047 255.351 77.8408 253.774 72.121L247.076 91.8204Z" fill="url(#paint8_linear)"/>
<path d="M221.916 157.212C221.292 162.435 221.292 167.723 221.916 172.946C222.319 176.231 222.967 179.505 222.76 182.801C222.77 183.445 222.58 184.074 222.22 184.587C221.759 184.993 221.193 185.234 220.6 185.278C217.529 185.802 214.455 186.337 211.378 186.883C210.239 179.824 211.378 172.255 212.596 165.079C213.617 158.998 214.636 152.913 215.65 146.825C216.829 139.738 218.017 132.608 219.215 125.436C219.914 120.704 220.898 116.027 222.161 111.435C222.397 110.637 222.643 109.861 222.908 109.096C225.952 107.267 230.185 105.906 232.07 108.862C234.035 112.051 231.452 119.493 230.686 122.682C227.897 134.238 223.32 145.284 221.916 157.212Z" fill="url(#paint9_linear)"/>
<path d="M292.556 65.0407C292.658 66.3627 292.621 67.6929 292.448 69.0061C292.348 69.6608 292.046 70.2595 291.591 70.7038C291.136 71.1482 290.555 71.4117 289.943 71.4512C286.879 71.2067 284.67 74.3854 282.234 76.4266C280.323 77.9766 278.055 78.9266 275.678 79.1722C273.301 79.4179 270.908 78.9498 268.76 77.8192C268.334 77.6532 267.864 77.6709 267.449 77.8687C267.035 78.0666 266.706 78.4295 266.531 78.8823C266.225 79.8202 266.157 80.8299 266.335 81.8059L267.464 93.4362C267.68 95.6794 267.7 98.4222 265.942 99.6341C264.184 100.846 262.102 99.7936 260.648 98.4222C258.364 96.0436 256.712 93.0437 255.866 89.7366C253.945 83.0364 253.67 75.9103 255.066 69.0598C256.463 62.2093 259.483 55.8706 263.83 50.6675C265.462 48.6929 267.375 47.0133 269.497 45.6922C271.718 44.4444 274.102 43.5731 276.568 43.1089C278.774 42.5452 281.055 42.4084 283.305 42.7049C286.326 43.2996 289.074 44.9816 291.102 47.4782C292.595 49.243 294.048 54.5054 295.62 55.3665C294.451 58.577 292.605 61.4155 292.556 65.0407Z" fill="#F5BCBA"/>
<path d="M269.183 19.391C267.743 19.0264 266.24 19.074 264.822 19.5292C262.053 20.5923 260.501 23.7285 259.499 26.7158C258.498 29.7031 257.673 32.9669 255.493 35.0824C253.617 36.911 250.956 37.6445 249.266 39.6644C247.302 42.0139 247.116 45.4902 247.302 48.6476C247.302 51.0165 247.918 53.3375 249.08 55.3452C250.121 56.8761 251.722 57.9392 252.537 59.5976C253.46 61.5006 253.774 64.4454 255.758 64.573C256.585 64.5277 257.366 64.1484 257.948 63.5098C259.953 61.6336 261.464 59.2166 262.328 56.504C262.809 54.9944 263.123 53.3147 264.184 52.2516C265.245 51.1885 267.405 51.1247 267.886 52.6343C268.021 53.5948 267.884 54.577 267.493 55.4515C267.238 56.387 267.346 57.6521 268.191 57.9711C269.782 55.3133 270.675 52.1878 272.561 49.7745C273.631 48.4173 274.974 47.3431 276.486 46.6342C277.999 45.9253 279.641 45.6005 281.287 45.6847C282.934 45.7688 284.541 46.2597 285.985 47.1197C287.429 47.9797 288.672 49.186 289.619 50.6463C290.601 52.1665 291.269 53.9738 292.644 55.0582C293.939 55.9124 295.419 56.3818 296.936 56.4189C300.314 56.7804 303.889 56.9186 306.933 55.292C309.977 53.6655 312.226 49.7214 311.058 46.2663C310.135 43.5554 307.503 42.0139 304.949 41.1421C302.396 40.2704 299.666 39.8345 297.417 38.2824C294.363 36.1562 292.732 32.3715 290.955 28.9377C289.177 25.5039 286.771 21.9743 283.216 21.1664C281.765 20.9219 280.288 20.9219 278.836 21.1664C277.42 21.4916 275.971 21.6131 274.525 21.5278C272.757 21.1345 271.049 19.8375 269.183 19.391Z" fill="#2E2E3F"/>
<path d="M269.183 106.746C271.425 119.045 272.086 131.62 271.147 144.114C270.371 154.512 268.525 164.834 268.593 175.263C268.738 178.196 268.656 181.137 268.348 184.055C267.916 186.947 250.003 185.841 247.391 185.809C242.991 185.746 248.569 192.188 245.26 189.084C240.064 184.183 237.747 176.539 237.108 169.119C236.195 158.541 238.199 147.952 240.379 137.587C241.891 130.411 243.502 123.214 246.212 116.463C249.571 108.118 254.884 97.4973 256.593 88.5779C256.838 87.2702 252.664 82.5181 254.461 82.5819C255.63 82.5819 255.08 84.5487 255.286 85.5267C255.655 87.0161 256.36 88.3825 257.339 89.5027C258.709 91.2342 260.564 92.4328 262.622 92.9153C263.948 93.1811 265.461 93.1173 266.423 94.1379C267.592 95.3711 267.405 97.7737 267.739 99.4534C268.22 101.856 268.731 104.291 269.183 106.746Z" fill="#F2F2F2"/>
<path d="M229.419 75.119C224.666 77.4791 220.58 81.1362 216.721 84.9633C213.526 88.0796 210.509 91.4025 207.686 94.914C205.191 98.1033 202.913 101.41 200.281 104.418C196.647 108.554 192.11 112.551 191.393 118.239C191.174 121.204 191.654 124.182 192.788 126.892C193.723 129.659 195.102 132.226 196.864 134.472C199.098 137.148 202.046 139.006 205.299 139.788C206.319 140.075 207.383 140.126 208.422 139.936C209.886 139.486 211.231 138.67 212.351 137.555C214.911 135.458 217.335 133.174 219.608 130.719C221.926 128.115 223.89 125.149 226.149 122.48C228.113 120.184 230.205 118.111 232.169 115.857C234.516 113.157 236.608 110.212 238.699 107.267C241.659 103.273 244.372 99.0717 246.821 94.6908C248.866 90.8245 250.491 86.7148 251.663 82.4438C252.419 79.6585 253.627 76.1289 251.014 74.1197C245.466 69.8885 234.948 72.323 229.419 75.119Z" fill="#68E1FD"/>
<path d="M229.419 75.119C224.666 77.4791 220.58 81.1362 216.721 84.9633C213.526 88.0796 210.509 91.4025 207.686 94.914C205.191 98.1033 202.913 101.41 200.281 104.418C196.647 108.554 192.11 112.551 191.393 118.239C191.174 121.204 191.654 124.182 192.788 126.892C193.723 129.659 195.102 132.226 196.864 134.472C199.098 137.148 202.046 139.006 205.299 139.788C206.319 140.075 207.383 140.126 208.422 139.936C209.886 139.486 211.231 138.67 212.351 137.555C214.911 135.458 217.335 133.174 219.608 130.719C221.926 128.115 223.89 125.149 226.149 122.48C228.113 120.184 230.205 118.111 232.169 115.857C234.516 113.157 236.608 110.212 238.699 107.267C241.659 103.273 244.372 99.0717 246.821 94.6908C248.866 90.8245 250.491 86.7148 251.663 82.4438C252.419 79.6585 253.627 76.1289 251.014 74.1197C245.466 69.8885 234.948 72.323 229.419 75.119Z" fill="#FF8934"/>
<path d="M311.745 123.66C310.683 124.386 309.924 125.532 309.629 126.854C309.334 128.175 309.526 129.569 310.164 130.741C311.813 133.845 314.024 136.557 316.665 138.714C318.237 140.542 321.772 140.84 324.915 138.841C328.057 136.843 343.053 128.008 350.546 122.236C351.096 121.827 351.563 121.301 351.919 120.69C352.275 120.079 352.512 119.396 352.615 118.683C352.719 117.97 352.688 117.241 352.523 116.541C352.358 115.841 352.063 115.186 351.656 114.613L345.381 106.108C344.637 105.102 343.576 104.428 342.402 104.216C341.227 104.004 340.022 104.269 339.017 104.96L311.745 123.66Z" fill="#3D3D54"/>
<path d="M212.076 215.289C213.184 219.693 215.149 223.789 217.84 227.302C220.787 231.023 224.793 233.681 228.643 236.211L244.857 246.895C247.235 248.376 249.509 250.042 251.663 251.881C256.976 256.623 260.501 263.235 263.929 269.699L287.577 314.318C288.775 316.603 290.454 319.187 292.88 319.102C294.186 318.918 295.414 318.327 296.415 317.401C299.45 315.094 302.71 312.468 303.614 308.566C304.242 305.845 303.614 302.985 302.857 300.285C299.224 286.985 293.528 274.462 287.812 262.013C278.731 242.31 269.516 222.646 260.167 203.021C257.683 197.812 254.668 189.7 250.563 185.873C250.563 185.873 212.419 183.364 211.457 187.457C209.313 196.622 209.527 206.247 212.076 215.289Z" fill="#525263"/>
<path d="M212.076 215.289C213.184 219.693 215.149 223.789 217.84 227.302C220.787 231.023 224.793 233.681 228.643 236.211L244.857 246.895C247.235 248.376 249.509 250.042 251.663 251.881C256.976 256.623 260.501 263.235 263.929 269.699L287.577 314.318C288.775 316.603 290.454 319.187 292.88 319.102C294.186 318.918 295.414 318.327 296.415 317.401C299.45 315.094 302.71 312.468 303.614 308.566C304.242 305.845 303.614 302.985 302.857 300.285C299.224 286.985 293.528 274.462 287.812 262.013C278.731 242.31 269.516 222.646 260.167 203.021C257.683 197.812 254.668 189.7 250.563 185.873C250.563 185.873 212.419 183.364 211.457 187.457C209.313 196.622 209.527 206.247 212.076 215.289Z" fill="url(#paint10_linear)"/>
<path d="M254.972 69.2932L249.581 71.6001L246.31 91.4057L257.182 90.8742L254.972 69.2932Z" fill="#D35B04"/>
<path d="M266.384 90.3958C266.384 91.2888 266.384 92.1818 266.384 93.0748C266.383 93.462 266.403 93.8488 266.443 94.2336C266.501 94.6243 266.58 95.0111 266.678 95.3924L268.034 101.176L268.593 91.7778C270.194 92.6177 271.834 93.3831 273.504 94.0529C273.378 92.6445 273.046 91.2666 272.522 89.9706C271.54 87.249 270.636 84.5168 269.575 81.8484C269.328 81.1357 268.969 80.4741 268.515 79.8923C268.286 79.6038 267.998 79.3768 267.674 79.2292C267.35 79.0817 266.999 79.0175 266.649 79.0418C265.667 79.4883 266.285 83.475 266.295 84.3574L266.384 90.3958Z" fill="#D35B04"/>
<path d="M345.833 119.004L325.877 132.665C325.527 132.869 325.124 132.938 324.733 132.861C324.342 132.784 323.987 132.565 323.726 132.24L317.382 124.5C317.252 124.368 317.151 124.206 317.087 124.026C317.022 123.846 316.997 123.652 317.012 123.46C317.027 123.267 317.083 123.081 317.174 122.915C317.265 122.749 317.39 122.608 317.539 122.502L337.534 108.851C337.884 108.647 338.287 108.578 338.678 108.655C339.069 108.732 339.424 108.952 339.685 109.277L346.029 117.005C346.157 117.14 346.256 117.305 346.317 117.487C346.378 117.669 346.4 117.864 346.381 118.056C346.362 118.249 346.303 118.434 346.208 118.599C346.113 118.763 345.984 118.901 345.833 119.004Z" fill="#68E1FD"/>
</g>
<defs>
<linearGradient id="paint0_linear" x1="257.044" y1="126.722" x2="297.349" y2="126.15" gradientUnits="userSpaceOnUse">
<stop offset="0.01"/>
<stop offset="0.13" stop-opacity="0.69"/>
<stop offset="1" stop-opacity="0"/>
</linearGradient>
<linearGradient id="paint1_linear" x1="75560.2" y1="12417.9" x2="33093.4" y2="72870.8" gradientUnits="userSpaceOnUse">
<stop offset="0.01"/>
<stop offset="0.13" stop-opacity="0.58"/>
<stop offset="1" stop-opacity="0"/>
</linearGradient>
<linearGradient id="paint2_linear" x1="20680.2" y1="24793.2" x2="11271.5" y2="30437" gradientUnits="userSpaceOnUse">
<stop offset="0.01"/>
<stop offset="0.13" stop-opacity="0.69"/>
<stop offset="1" stop-opacity="0"/>
</linearGradient>
<linearGradient id="paint3_linear" x1="4807.11" y1="10247.7" x2="8960.22" y2="11610.6" gradientUnits="userSpaceOnUse">
<stop offset="0.01"/>
<stop offset="0.13" stop-opacity="0.69"/>
<stop offset="1" stop-opacity="0"/>
</linearGradient>
<linearGradient id="paint4_linear" x1="21225.7" y1="29261.7" x2="29958.8" y2="29261.7" gradientUnits="userSpaceOnUse">
<stop offset="0.01"/>
<stop offset="0.13" stop-opacity="0.69"/>
<stop offset="1" stop-opacity="0"/>
</linearGradient>
<linearGradient id="paint5_linear" x1="10169.9" y1="10401.7" x2="9347.63" y2="10186.4" gradientUnits="userSpaceOnUse">
<stop offset="0.01"/>
<stop offset="0.13" stop-opacity="0.69"/>
<stop offset="1" stop-opacity="0"/>
</linearGradient>
<linearGradient id="paint6_linear" x1="8215.94" y1="14775.3" x2="8924.99" y2="14775.3" gradientUnits="userSpaceOnUse">
<stop offset="0.01"/>
<stop offset="0.13" stop-opacity="0.69"/>
<stop offset="1" stop-opacity="0"/>
</linearGradient>
<linearGradient id="paint7_linear" x1="1528.64" y1="1800.34" x2="1807.29" y2="1869.56" gradientUnits="userSpaceOnUse">
<stop offset="0.01"/>
<stop offset="0.13" stop-opacity="0.69"/>
<stop offset="1" stop-opacity="0"/>
</linearGradient>
<linearGradient id="paint8_linear" x1="3495.53" y1="4029.6" x2="2801.31" y2="4099.77" gradientUnits="userSpaceOnUse">
<stop offset="0.01"/>
<stop offset="0.13" stop-opacity="0.69"/>
<stop offset="1" stop-opacity="0"/>
</linearGradient>
<linearGradient id="paint9_linear" x1="4334.72" y1="11651.2" x2="5725.89" y2="11638" gradientUnits="userSpaceOnUse">
<stop offset="0.01" stop-color="#FF8934"/>
<stop offset="0.13" stop-opacity="0.69"/>
<stop offset="1" stop-opacity="0"/>
</linearGradient>
<linearGradient id="paint10_linear" x1="22881.5" y1="33515.5" x2="30121.4" y2="31382.4" gradientUnits="userSpaceOnUse">
<stop offset="0.01"/>
<stop offset="0.13" stop-opacity="0.69"/>
<stop offset="1" stop-opacity="0"/>
</linearGradient>
<clipPath id="clip0">
<rect width="516" height="421" fill="white" transform="translate(-27)"/>
</clipPath>
</defs>
</svg>
