<svg width="33" height="33" viewBox="0 0 33 33" fill="none" xmlns="http://www.w3.org/2000/svg">
<path d="M16.5 0C7.37969 0 0 7.38033 0 16.5C0 25.6203 7.38033 33 16.5 33C25.6203 33 33 25.6197 33 16.5C33 7.37969 25.6197 0 16.5 0ZM16.5 30.4219C8.80475 30.4219 2.57812 24.1947 2.57812 16.5C2.57812 8.80475 8.80526 2.57812 16.5 2.57812C24.1953 2.57812 30.4219 8.80526 30.4219 16.5C30.4219 24.1953 24.1947 30.4219 16.5 30.4219Z" fill="#dbdbdb"/>
<path d="M16.5 8.30652C15.7881 8.30652 15.2109 8.88363 15.2109 9.59558V17.8967C15.2109 18.6086 15.7881 19.1857 16.5 19.1857C17.2119 19.1857 17.7891 18.6086 17.7891 17.8967V9.59558C17.7891 8.88363 17.2119 8.30652 16.5 8.30652Z" fill="#dbdbdb"/>
<path d="M16.5 24.2447C17.4611 24.2447 18.2402 23.4656 18.2402 22.5045C18.2402 21.5434 17.4611 20.7642 16.5 20.7642C15.5389 20.7642 14.7598 21.5434 14.7598 22.5045C14.7598 23.4656 15.5389 24.2447 16.5 24.2447Z" fill="#dbdbdb"/>
</svg>
